<?xml version="1.0" encoding="utf-8"?>
<!-- Generator: Adobe Illustrator 27.5.0, SVG Export Plug-In . SVG Version: 6.00 Build 0)  -->
<svg version="1.1" id="Layer_1" xmlns="http://www.w3.org/2000/svg" xmlns:xlink="http://www.w3.org/1999/xlink" x="0px" y="0px"
	 viewBox="0 0 521 435" style="enable-background:new 0 0 521 435;" xml:space="preserve">
<path d="M88.3,185c2.3-0.5,4.6-0.8,7-0.9c56.2,0,112.5,0,168.7-0.2c5.1-0.4,9.9,2.4,12,7c3.3,6.2,7.1,12.1,11.1,19
	c1.7-2.6,3-4.5,4.2-6.5c27-46.9,54-93.8,80.7-140.9c3.5-6.1,7.5-8.8,14.6-8.7c29.5,0.4,59,0.2,88.5,0.4c9,0,10.2,2,5.7,10
	c-34,59.7-68,119.5-101.9,179.1c-1.5,3.6-5.2,5.7-9,5.3c-54.9-0.2-109.8-0.2-164.6,0c-4.1,0.4-7.9-1.8-9.7-5.4
	c-15.3-26.3-7.8-20.2-36.8-30.5c-21.4-7.6-42.9-15-64.3-22.5c-2.2-0.8-4.3-1.9-6.5-2.8L88.3,185z"/>
<path d="M134.8,279.5c2-0.5,3.9-0.9,6-1c69.5,0,139,0,208.5,0c7.2,0,8.3,1.8,4.8,8c-16.5,29.3-33.1,58.5-49.7,87.7
	c-2.2,4.7-7.1,7.4-12.3,6.9c-2.7-0.2-5.5-0.2-8.2,0c-6,0.4-9.9-2.2-12.8-7.3c-9.4-16.6-19.1-33.1-28.5-49.7
	c-3-5.7-8.1-9.9-14.3-11.7c-29.2-9.2-58.4-18.8-87.5-28.3c-2.1-0.7-4.1-1.5-6.1-2.2L134.8,279.5z"/>
<path d="M254.2,155.4h-8.5c-31.3,0-62.6,0-94,0c-5,0-8.2-1.4-10.1-6c-5.2-12.7-14.4-19.7-27.7-23.7c-23.3-7.1-46-16.1-68.9-24.3
	c-2.8-0.9-5.3-2.6-7.2-4.9c2.5-0.2,5-0.6,7.5-0.6c44.3,0,88.7,0,133-0.1c10.7,0,21.5-0.4,32.2-0.7c5.8-0.7,11.4,2.5,13.8,7.8
	c8.1,14.7,17,29.1,25.5,43.6C251.1,148.8,252.2,151.3,254.2,155.4z"/>
</svg>
