<?xml version="1.0" encoding="utf-8"?>
<!-- Generator: Adobe Illustrator 28.2.0, SVG Export Plug-In . SVG Version: 6.00 Build 0)  -->
<svg version="1.1" id="Layer_1" xmlns="http://www.w3.org/2000/svg" xmlns:xlink="http://www.w3.org/1999/xlink" x="0px" y="0px"
	 viewBox="0 0 711.8 146.1" style="enable-background:new 0 0 711.8 146.1;" xml:space="preserve">
<style type="text/css">
	.st0{fill:#FFFFFF;}
	.st1{fill:#78C8D3;}
</style>
<path class="st0" d="M261.7,109h-63.6c-0.1,6.3,3.4,10.6,9.8,12.7c8.5,2.7,17.7-0.7,22.4-8.2l27.5,7.8c-3.3,6.6-8.3,12.2-14.4,16.2
	c-17.3,11.8-45.8,11.4-62.6-1c-12.8-9.5-18.3-22.6-17.9-38.3c0.3-10.7,3.2-20.6,10-29c7.4-9.1,17-14.4,28.6-16.4
	c10.9-1.9,21.7-1.3,32,2.7c18.4,7.3,28.9,23.5,28.7,43.7C262.2,102.5,261.9,105.6,261.7,109z M226.8,89.2c-0.4-8.5-6.8-14.2-15.1-14
	c-8.1,0.2-14.2,6.2-14.3,14H226.8z"/>
<path class="st1" d="M22.5,58.3c1-0.2,2.1-0.3,3.1-0.4c25,0,50,0,75-0.1c2.3-0.2,4.4,1.1,5.3,3.1c1.5,2.7,3.1,5.4,4.9,8.4
	c0.8-1.2,1.3-2,1.9-2.9c12-20.9,24-41.7,35.9-62.6c1.5-2.7,3.4-3.9,6.5-3.9c13.1,0.2,26.2,0.1,39.3,0.2c4,0,4.5,0.9,2.5,4.4
	c-15.1,26.6-30.2,53.1-45.3,79.6c-0.7,1.6-2.3,2.5-4,2.4c-24.4-0.1-48.8-0.1-73.2,0c-1.8,0.2-3.5-0.8-4.3-2.4
	c-6.8-11.7-3.5-9-16.4-13.5c-9.5-3.4-19.1-6.7-28.6-10c-1-0.3-1.9-0.8-2.9-1.3L22.5,58.3z"/>
<path class="st0" d="M273.1,53.7h29.8v17c7.4-12.6,16.9-19.7,31.4-18.7v28.9c-6.1,1-12.1,2-18.1,3.1c-1.6,0.4-3.1,1-4.5,1.7
	c-4.4,1.9-6.5,4.8-6.3,10.1c0.4,16,0.1,32.1,0.1,48.3h-32.5V53.7z"/>
<path class="st0" d="M345.7,53.7h32.3v90.4h-32.3V53.7z"/>
<path class="st0" d="M414.1,87.5v56.6h-11.8v-122h79.9v10.4h-68v44.9h57.6v10L414.1,87.5z"/>
<path class="st0" d="M548,129.8c-9.6,11.2-21.7,16.3-35.9,16.2c-9.9-0.1-18.5-3.6-24.5-11.9c-9.2-12.5-6.1-28.4,7-36.6
	c8.1-5.1,17.1-6.5,26.5-6.4c8.6,0,17.2,1.5,25.3,4.3c1.8-15.3-2-26.2-13-31.3c-7.7-3.6-15.9-3.2-23.7-0.4c-5.8,2.1-11.3,5.2-17.4,8
	l-3.8-7.1c14.6-9.7,30.1-14.8,47.5-9.8c12.1,3.5,21.3,14.2,21.9,26.7c0.8,14.6,0.5,29.2,0.7,43.8c0,1.2,0,2.4,0,3.7
	c0.1,3.4,0.5,4,4,5.2v9.9C552.3,146,549.6,143.4,548,129.8z M546.8,111.2c-0.1-1.8-0.1-3.6,0-5.5c0.2-2.2-0.7-3.1-2.7-3.6
	c-3.5-0.8-7-2-10.6-2.6c-9.7-1.6-19.4-2-28.7,2.2c-6.2,2.8-10.6,7.1-11,14.4c-0.5,8,2.9,14,9.8,17.8c9.9,5.4,19.9,3.6,29.4-1.1
	C542,128.5,548.5,122.4,546.8,111.2L546.8,111.2z"/>
<path class="st0" d="M576.4,132.6l5-7.4c5.1,2.9,9.9,6.1,15.1,8.4c9.4,4.3,20.2,4.9,30,1.6c5.5-1.8,9.8-5.3,11-11.4
	c1.3-6.4-0.4-11.2-6.4-13.9s-12.3-4.3-18.6-6.2c-5.8-1.8-11.8-3-17.4-5c-15.2-5.5-19.4-20.8-9.6-33.8c4.9-6.4,11.7-9.5,19.4-10.9
	c12.2-2.2,23.8-0.7,34.6,5.7c2.5,1.5,4.8,3.4,7.4,5.3l-5.8,7.2c-5.4-5.2-12.2-8.6-19.6-9.7c-6.7-1.1-13.3-1.1-19.8,1.5
	c-7.3,3-10.7,9.2-9.7,17c0.3,3.6,2.8,6.7,6.3,7.9c6,2.1,12.2,3.7,18.2,5.6c6.4,1.9,12.8,3.7,19.1,6c19.9,7.3,15.5,30.8,4,38.7
	c-8.5,5.8-17.9,7.4-27.8,7c-12.1-0.6-23.3-3.9-33-11.4C578,133.9,577.3,133.3,576.4,132.6z"/>
<path class="st1" d="M43.1,100.3c0.9-0.2,1.8-0.4,2.6-0.4c30.9,0,61.8,0,92.7,0c3.2,0,3.7,0.8,2.1,3.6c-7.3,13-14.7,26-22.1,39
	c-1,2.1-3.2,3.3-5.5,3.1c-1.2-0.1-2.4-0.1-3.6,0c-2.6,0.2-4.4-1-5.7-3.3c-4.2-7.4-8.5-14.7-12.6-22.1c-1.3-2.5-3.6-4.4-6.4-5.2
	c-13-4.1-25.9-8.4-38.9-12.6c-0.9-0.3-1.8-0.6-2.7-1L43.1,100.3z"/>
<path class="st0" d="M704.8,54.2v9.1h-20.6v3.6c0,18.2,0.4,36.3-0.1,54.5c-0.3,12.4,7.7,13.8,16,12.3c2.8-0.5,5.5-1.9,8.6-3.1
	l3.1,9.1c-8.4,3.9-16.9,6.6-26.2,4.7c-7.6-1.6-12.5-7-13-14.7c-0.3-5-0.2-10.1-0.2-15.2c0-15.8,0-31.6,0-47.5v-3.5h-12.2v-9.2h12.4
	V23.9H684v30.2H704.8z"/>
<path class="st0" d="M96.2,45.1h-3.8c-13.9,0-27.8,0-41.8,0c-2.2,0-3.6-0.6-4.5-2.7c-2.3-5.6-6.4-8.7-12.3-10.6
	c-10.4-3.2-20.4-7.1-30.6-10.8C1.9,20.7,0.8,20,0,18.9c1.1-0.1,2.2-0.2,3.3-0.2c19.7,0,39.4,0,59.1-0.1c4.8,0,9.5-0.2,14.3-0.3
	c2.6-0.3,5.1,1.1,6.1,3.5c3.6,6.5,7.6,12.9,11.4,19.4C94.8,42.2,95.3,43.3,96.2,45.1z"/>
<path class="st0" d="M377.9,18.7V46h-32.1V18.7H377.9z"/>
</svg>
